<?xml version="1.0" encoding="utf-8"?>
<!-- Generator: Adobe Illustrator 19.1.0, SVG Export Plug-In . SVG Version: 6.00 Build 0)  -->
<!DOCTYPE svg PUBLIC "-//W3C//DTD SVG 1.1//EN" "http://www.w3.org/Graphics/SVG/1.1/DTD/svg11.dtd">
<svg version="1.1" id="Layer_1" xmlns="http://www.w3.org/2000/svg" xmlns:xlink="http://www.w3.org/1999/xlink" x="0px" y="0px"
	 width="50px" height="22px" viewBox="0 0 50 22" enable-background="new 0 0 50 22" xml:space="preserve">
<metadata><?xpacket begin="﻿" id="W5M0MpCehiHzreSzNTczkc9d"?>
<x:xmpmeta xmlns:x="adobe:ns:meta/" x:xmptk="Adobe XMP Core 5.6-c067 79.157747, 2015/03/30-23:40:42        ">
   <rdf:RDF xmlns:rdf="http://www.w3.org/1999/02/22-rdf-syntax-ns#">
      <rdf:Description rdf:about=""/>
   </rdf:RDF>
</x:xmpmeta>
                                                                                                    
                                                                                                    
                                                                                                    
                                                                                                    
                                                                                                    
                                                                                                    
                                                                                                    
                                                                                                    
                                                                                                    
                                                                                                    
                                                                                                    
                                                                                                    
                                                                                                    
                                                                                                    
                                                                                                    
                                                                                                    
                                                                                                    
                                                                                                    
                                                                                                    
                                                                                                    
                           
<?xpacket end="w"?></metadata>
<path fill="#A0A0A0" d="M0,3.4l15.8,0l0-2.9L0,0.4L0,3.4z M4.6,7.7l11.2,0l0-2.9l-11.2,0L4.6,7.7z M9.7,12l6.1,0l0-2.9L9.7,9L9.7,12
	z M33.5,0.5l0,2.9l15.8,0l0-2.9L33.5,0.5z M33.5,7.8l11.2,0l0-2.9l-11.2,0L33.5,7.8z M33.5,12l6,0l0-2.9l-6,0L33.5,12z M28.8,9
	l-4.9,0l0,3l4.9,0l0,9.3l3.2,0l0-20.8l-3.2,0L28.8,9z M23.9,16.7c0,0.7-0.1,1.3-0.4,1.6c-0.3,0.4-0.7,0.5-1.2,0.5
	c-0.5,0-1-0.2-1.2-0.5c-0.3-0.4-0.4-0.9-0.4-1.6l0-11.6c0-0.7,0.1-1.3,0.4-1.6c0.3-0.4,0.7-0.5,1.2-0.5c0.5,0,1,0.2,1.2,0.5
	c0.3,0.4,0.4,0.9,0.4,1.6l0,2.3l3.3,0l0-2c0-1.6-0.4-3-1.3-3.9c-0.9-1-2-1.4-3.5-1.4c-1.6,0-2.8,0.5-3.7,1.4
	c-0.9,0.9-1.3,2.2-1.4,3.9l0,10.7c0,1.9,0.4,3.3,1.2,4.3c0.8,1,2.1,1.5,3.7,1.5c1.6,0,2.8-0.5,3.7-1.5c0.9-1,1.3-2.4,1.3-4.2l0-2.2
	l-3.3,0L23.9,16.7z"/>
</svg>
