<?xml version="1.0" encoding="utf-8"?>
<!-- Generator: Adobe Illustrator 19.1.0, SVG Export Plug-In . SVG Version: 6.00 Build 0)  -->
<!DOCTYPE svg PUBLIC "-//W3C//DTD SVG 1.1//EN" "http://www.w3.org/Graphics/SVG/1.1/DTD/svg11.dtd">
<svg version="1.1" id="Layer_1" xmlns="http://www.w3.org/2000/svg" xmlns:xlink="http://www.w3.org/1999/xlink" x="0px" y="0px"
	 width="98px" height="44px" viewBox="0 0 98 44" enable-background="new 0 0 98 44" xml:space="preserve">
<metadata><?xpacket begin="﻿" id="W5M0MpCehiHzreSzNTczkc9d"?>
<x:xmpmeta xmlns:x="adobe:ns:meta/" x:xmptk="Adobe XMP Core 5.6-c067 79.157747, 2015/03/30-23:40:42        ">
   <rdf:RDF xmlns:rdf="http://www.w3.org/1999/02/22-rdf-syntax-ns#">
      <rdf:Description rdf:about=""/>
   </rdf:RDF>
</x:xmpmeta>
                                                                                                    
                                                                                                    
                                                                                                    
                                                                                                    
                                                                                                    
                                                                                                    
                                                                                                    
                                                                                                    
                                                                                                    
                                                                                                    
                                                                                                    
                                                                                                    
                                                                                                    
                                                                                                    
                                                                                                    
                                                                                                    
                                                                                                    
                                                                                                    
                                                                                                    
                                                                                                    
                           
<?xpacket end="w"?></metadata>
<path fill="#E11F26" d="M1.1,8H32V2.3H1.1V8z M10.1,16.5H32v-5.7H10.1V16.5z M20.1,24.8H32V19H20.1V24.8z M66.5,2.3V8h30.8V2.3H66.5
	z M66.5,16.5h21.9v-5.7H66.5V16.5z M66.5,24.8h11.8V19H66.5V24.8z M57.3,19h-9.5v5.9h9.5V43h6.3V2.4h-6.3V19z M47.9,33.9
	c0,1.4-0.3,2.5-0.8,3.2c-0.5,0.7-1.4,1.1-2.4,1.1c-1.1,0-1.9-0.4-2.4-1.1c-0.5-0.7-0.8-1.8-0.8-3.2V11.2c0-1.4,0.3-2.5,0.8-3.2
	C42.8,7.4,43.6,7,44.6,7c1.1,0,1.9,0.4,2.4,1.1c0.5,0.7,0.8,1.8,0.8,3.2v4.5h6.5v-3.9c0-3.2-0.9-5.8-2.6-7.6c-1.7-1.9-4-2.8-6.9-2.8
	c-3.1,0-5.5,0.9-7.2,2.7C35.9,5.9,35,8.4,35,11.6v20.8c0,3.7,0.8,6.5,2.4,8.4c1.6,1.9,4,2.9,7.2,2.9c3.1,0,5.5-1,7.2-2.9
	c1.7-1.9,2.5-4.7,2.5-8.2v-4.2h-6.5V33.9z"/>
</svg>
